<!DOCTYPE svg PUBLIC "-//W3C//DTD SVG 1.1//EN" "http://www.w3.org/Graphics/SVG/1.1/DTD/svg11.dtd">
<!-- Uploaded to: SVG Repo, www.svgrepo.com, Transformed by: SVG Repo Mixer Tools -->
<svg fill="#2066af" height="256px" width="256px" version="1.1" id="Layer_1" xmlns="http://www.w3.org/2000/svg" xmlns:xlink="http://www.w3.org/1999/xlink" viewBox="0 0 512 512" xml:space="preserve">
<g id="SVGRepo_bgCarrier" stroke-width="0"/>
<g id="SVGRepo_tracerCarrier" stroke-linecap="round" stroke-linejoin="round"/>
<g id="SVGRepo_iconCarrier"> <g> <g> <path d="M452.181,64.427l-13.12-2.645C378.816,49.749,320.448,29.717,265.536,2.24c-5.995-2.987-13.077-2.987-19.072,0 c-54.912,27.477-113.28,47.509-173.525,59.541l-13.12,2.645c-9.963,1.984-17.152,10.731-17.152,20.907v78.571 c0,92.608,36.053,179.669,101.547,245.141l96.704,96.704c4.16,4.16,9.621,6.251,15.083,6.251c5.461,0,10.923-2.091,15.083-6.251 l96.704-96.704c65.493-65.472,101.547-152.533,101.547-245.141V85.333C469.333,75.157,462.144,66.411,452.181,64.427z M213.333,128c11.776,0,21.333,9.557,21.333,21.333c0,11.776-9.557,21.333-21.333,21.333S192,161.109,192,149.333 C192,137.557,201.557,128,213.333,128z M213.333,213.333c11.776,0,21.333,9.557,21.333,21.333S225.109,256,213.333,256 S192,246.443,192,234.667S201.557,213.333,213.333,213.333z M170.667,213.333c-11.776,0-21.333-9.557-21.333-21.333 s9.557-21.333,21.333-21.333S192,180.224,192,192S182.443,213.333,170.667,213.333z M170.667,85.333 c11.776,0,21.333,9.557,21.333,21.333S182.443,128,170.667,128s-21.333-9.557-21.333-21.333S158.891,85.333,170.667,85.333z M128,128c11.776,0,21.333,9.557,21.333,21.333c0,11.776-9.557,21.333-21.333,21.333s-21.333-9.557-21.333-21.333 C106.667,137.557,116.224,128,128,128z M128,256c-11.776,0-21.333-9.557-21.333-21.333s9.557-21.333,21.333-21.333 s21.333,9.557,21.333,21.333S139.776,256,128,256z M170.667,298.667c-11.776,0-21.333-9.557-21.333-21.333 S158.891,256,170.667,256S192,265.557,192,277.333S182.443,298.667,170.667,298.667z M213.333,341.333 C201.557,341.333,192,331.776,192,320s9.557-21.333,21.333-21.333s21.333,9.557,21.333,21.333S225.109,341.333,213.333,341.333z M256,384c-11.776,0-21.333-9.557-21.333-21.333s9.557-21.333,21.333-21.333s21.333,9.557,21.333,21.333S267.776,384,256,384z M256,298.667c-11.776,0-21.333-9.557-21.333-21.333S244.224,256,256,256s21.333,9.557,21.333,21.333S267.776,298.667,256,298.667 z M256,213.333c-11.776,0-21.333-9.557-21.333-21.333s9.557-21.333,21.333-21.333s21.333,9.557,21.333,21.333 S267.776,213.333,256,213.333z M256,128c-11.776,0-21.333-9.557-21.333-21.333S244.224,85.333,256,85.333 s21.333,9.557,21.333,21.333S267.776,128,256,128z"/> </g> </g> </g>
</svg>